<?xml version="1.0" standalone="no"?>
<!DOCTYPE svg PUBLIC "-//W3C//DTD SVG 1.1//EN" "http://www.w3.org/Graphics/SVG/1.1/DTD/svg11.dtd" >
<svg xmlns="http://www.w3.org/2000/svg">
<metadata>
This is a custom SVG webfont generated by Font Squirrel.
Copyright   : 1991 Erik Spiekermann published by Fontshop International for the FontFont library
</metadata>
<defs>
<font id="MetaRoman" horiz-adv-x="1091" >
<font-face units-per-em="2048" ascent="1638" descent="-410" />
<missing-glyph horiz-adv-x="460" />
<glyph unicode=" "  horiz-adv-x="460" />
<glyph unicode="&#x09;" horiz-adv-x="460" />
<glyph unicode="&#xa0;" horiz-adv-x="460" />
<glyph unicode="!" horiz-adv-x="604" d="M133 143q0 70 50 120t120 50t119 -50t49 -119.5t-50 -120t-122 -50.5q-70 0 -118 49t-48 121zM135 1407l328 47l-57 -1001h-209z" />
<glyph unicode="&#x22;" horiz-adv-x="999" d="M133 872v578h258v-578h-258zM608 872v578h258v-578h-258z" />
<glyph unicode="#" horiz-adv-x="1150" d="M61 412v184h197l35 258h-172v184h196l58 412h198l-57 -412h203l57 412h199l-57 -412h172v-184h-197l-35 -258h172v-184h-196l-58 -412h-198l57 412h-203l-57 -412h-199l57 412h-172zM457 596h202l35 258h-202z" />
<glyph unicode="$" horiz-adv-x="1196" d="M61 98l107 224q219 -115 391 -115q250 0 250 194q0 133 -186 185l-158 43q-207 57 -281 180q-59 96 -59 217q0 176 116.5 295t311.5 141v148h176v-150q221 -23 381 -137l-135 -205q-180 109 -332 109q-88 0 -143.5 -46t-55.5 -118q0 -55 35 -87t123 -56l172 -48 q174 -47 267.5 -156.5t93.5 -266.5q0 -197 -135.5 -325t-362.5 -151v-166h-176v166q-214 19 -400 125z" />
<glyph unicode="%" horiz-adv-x="1720" d="M61 1087q0 160 95.5 258.5t251.5 98.5q166 0 262 -103q90 -90 90 -249q0 -168 -96 -263q-98 -94 -256 -94t-252.5 95t-94.5 257zM285 1094q0 -115 22 -154q33 -51 103 -51q66 0 94 49t28 158q0 125 -40 164q-33 33 -86 32q-76 0 -103 -61q-18 -45 -18 -137zM391 0 l746 1423h194l-745 -1423h-195zM961 332q0 160 95 258t251 98q166 0 262 -102q90 -90 90 -250q0 -168 -96 -262q-98 -94 -256 -94t-252 95t-94 257zM1184 338q0 -115 22 -154q33 -51 103 -51q66 0 94.5 49t28.5 158q0 125 -41 164q-33 33 -86 33q-76 0 -103 -62 q-18 -45 -18 -137z" />
<glyph unicode="&#x26;" horiz-adv-x="1443" d="M82 358q0 236 256 355q-102 80 -133 145q-33 70 -33 162q0 152 114.5 248t295.5 96q182 0 298.5 -90t116.5 -234q0 -117 -69 -196q-49 -53 -180 -127l-19 -10l238 -226q18 72 18 201v14h229v-12q0 -231 -65 -381l305 -303h-381l-86 86q-53 -45 -123 -74 q-104 -41 -268 -41q-246 0 -380 101.5t-134 285.5zM375 375q0 -96 60.5 -149.5t168.5 -53.5q147 0 215 70l-334 321q-110 -67 -110 -188zM453 1040q0 -45 20.5 -78.5t85.5 -101.5l16 -16q135 70 136 192q0 59 -36 98.5t-91 39.5q-59 0 -95 -37.5t-36 -96.5z" />
<glyph unicode="'" horiz-adv-x="524" d="M133 872v578h258v-578h-258z" />
<glyph unicode="(" horiz-adv-x="638" d="M82 659q0 219 41 390q45 190 184 342q127 135 297 208l72 -161q-72 -51 -111 -90q-109 -109 -153 -248q-39 -111 -47 -269q-4 -59 -5 -167q0 -145 17 -316q23 -207 96 -336q39 -70 84 -112.5t123 -85.5l-72 -160q-150 51 -262.5 160.5t-175.5 263.5q-63 158 -82 422 q-6 89 -6 159z" />
<glyph unicode=")" horiz-adv-x="634" d="M-41 -182q61 45 111 90q109 109 155 248q33 100 45 268q6 92 6 172q0 172 -16 311q-25 213 -94 336q-41 70 -85 113t-122 86l72 160q152 -53 264.5 -162t173.5 -264q61 -160 80 -422q4 -57 4 -154q0 -242 -39 -395q-47 -188 -186 -340q-125 -137 -299 -209z" />
<glyph unicode="*" horiz-adv-x="974" d="M51 1069l66 195l268 -97v283h209v-283l268 88l62 -194l-269 -86l170 -234l-170 -125l-172 236l-166 -225l-165 125l172 223z" />
<glyph unicode="+" horiz-adv-x="1286" d="M82 492v258h432v432h258v-432h432v-258h-432v-433h-258v433h-432z" />
<glyph unicode="," horiz-adv-x="581" d="M82 -182q68 14 107.5 47t39.5 69q0 33 -53 66q-80 47 -80 143q0 74 52.5 125t125.5 51q90 0 147.5 -69.5t57.5 -175.5q0 -133 -80 -235.5t-209 -135.5z" />
<glyph unicode="-" horiz-adv-x="655" d="M82 442v238h491v-238h-491z" />
<glyph unicode="." horiz-adv-x="565" d="M102 150q0 74 52.5 126t126.5 52q76 0 129 -52.5t53 -125.5q0 -76 -53.5 -129.5t-126.5 -53.5q-76 0 -128.5 53.5t-52.5 129.5z" />
<glyph unicode="/" horiz-adv-x="892" d="M82 -315l549 1880h180l-549 -1880h-180z" />
<glyph unicode="0" horiz-adv-x="1136" d="M82 520q0 246 135 397.5t352 151.5q223 0 354.5 -148.5t131.5 -396.5q0 -246 -135.5 -397.5t-352.5 -151.5q-223 0 -354 148.5t-131 396.5zM383 526q0 -201 48 -275.5t136 -74.5q186 0 187 342q0 201 -48.5 275.5t-136.5 74.5q-186 0 -186 -342z" />
<glyph unicode="1" horiz-adv-x="866" d="M51 782l395 287h185v-846h164v-223h-650v223h222v531q-125 -78 -246 -119z" />
<glyph unicode="2" horiz-adv-x="1138" d="M82 879q227 203 516 202q182 0 290.5 -92t108.5 -244q0 -188 -192 -331q-33 -25 -82 -54.5t-110.5 -63.5t-88.5 -50l-53 -27q76 10 199 10h366l-59 -229h-854v250q10 6 74.5 35.5t136.5 70.5q203 115 278.5 193t75.5 153q0 66 -45 102t-119 36q-119 0 -278 -131z" />
<glyph unicode="3" horiz-adv-x="1101" d="M61 899q90 70 191 111q150 61 293 61q193 0 317.5 -101.5t124.5 -254.5q0 -182 -135 -264q-33 -20 -76 -37q115 -39 179.5 -121t64.5 -191q0 -211 -202 -345t-519 -134q-92 0 -170 10l-66 191q74 -14 156 -14q213 0 346 88t133 227q0 117 -90 156q-59 25 -190 24 q-76 0 -105 -2v229q66 -8 142 -8q227 0 227 162q0 70 -44 112t-130 42q-166 0 -303 -115z" />
<glyph unicode="4" d="M41 0v186l395 875h283l-295 -664q-63 -137 -92 -166q20 4 43 5h231l49 -3q-2 27 -2 37q0 78 15 219l22 240l215 49v-362q0 -84 -2 -121l-4 -62q41 2 66 3h86v-236h-93l-63 4q10 -27 10 -74v-288l-260 -33v346l4 51q-25 -6 -65 -6h-543z" />
<glyph unicode="5" horiz-adv-x="1044" d="M82 -160q109 -29 192 -28q164 0 267.5 84t103.5 215q0 98 -61.5 157.5t-161.5 59.5q-115 0 -299 -58l65 779h699l-41 -234h-402l-28 -285q53 10 96 11q190 0 310 -111t120 -287q0 -227 -181 -373.5t-464 -146.5q-80 0 -156 15z" />
<glyph unicode="6" horiz-adv-x="1177" d="M92 549q0 160 53 295q70 182 230 332q90 86 244.5 173t281.5 124l60 -197q-420 -135 -533 -473q84 68 219 67q186 0 312 -124.5t126 -307.5q0 -199 -138 -333t-341 -134q-225 0 -369.5 162t-144.5 416zM391 459q0 -131 53.5 -204t149.5 -73q92 0 147.5 68.5t55.5 183.5 q0 98 -50.5 156.5t-136.5 58.5q-96 0 -213 -67q-6 -37 -6 -123z" />
<glyph unicode="7" horiz-adv-x="997" d="M41 801l61 248h854l-45 -240q-309 -465 -430 -858q-20 -68 -59 -285l-301 -76q61 256 147 492q74 205 181 412q90 178 190 315q-31 -8 -82 -8h-516z" />
<glyph unicode="8" horiz-adv-x="1218" d="M82 352q0 115 67.5 211t174.5 135q-78 23 -142 113q-61 88 -61 197q0 170 136 274t355 104q207 0 339 -99t132 -257q0 -104 -72.5 -187t-191.5 -116q121 -35 228 -131q90 -84 90 -221q0 -139 -92.5 -247t-241.5 -144q-98 -25 -215 -25q-201 0 -324 76q-182 110 -182 317z M387 373q0 -96 62.5 -153.5t168.5 -57.5q92 0 150.5 49t58.5 127q0 96 -77 147q-82 53 -232 105q-131 -76 -131 -217zM403 1032q0 -94 125 -155q29 -14 84 -39q166 84 166 200q0 147 -186 148q-84 0 -136.5 -42t-52.5 -112z" />
<glyph unicode="9" horiz-adv-x="1148" d="M82 604q0 207 140 343t356 136q229 0 359 -148.5t130 -410.5q0 -414 -336 -692q-205 -172 -434 -252l-150 168q166 43 331 176t210 262q-84 -39 -166 -39q-188 0 -314 131t-126 326zM379 612q0 -111 56.5 -177t150.5 -66q90 0 164 75q20 70 20 154q0 129 -53 201.5 t-146 72.5q-88 0 -140 -70.5t-52 -189.5z" />
<glyph unicode=":" horiz-adv-x="602" d="M123 139q0 76 52 130.5t126 52t125 -54.5t51 -128q0 -72 -52 -122t-126 -50q-72 0 -124 50t-52 122zM127 752q0 74 51 127t123 53q74 0 126 -52.5t52 -126t-52 -124.5t-126 -51q-72 0 -123 51t-51 123z" />
<glyph unicode=";" horiz-adv-x="643" d="M123 -182q66 16 105.5 48t39.5 68q0 33 -47 62q-86 51 -86 143q0 78 51.5 129t128.5 51q88 0 146.5 -69.5t58.5 -177.5q0 -131 -82 -234.5t-209 -134.5zM141 754q0 74 50.5 127t121.5 53q74 0 127.5 -52.5t53.5 -125.5q0 -72 -51.5 -124t-123.5 -52q-74 0 -126 51 t-52 123z" />
<glyph unicode="&#x3c;" horiz-adv-x="831" d="M41 612l494 637l215 -188l-344 -449l344 -452l-215 -185z" />
<glyph unicode="=" horiz-adv-x="1286" d="M82 295v258h1122v-258h-1122zM82 688v258h1122v-258h-1122z" />
<glyph unicode="&#x3e;" horiz-adv-x="831" d="M82 160l344 452l-344 449l215 188l494 -637l-494 -637z" />
<glyph unicode="?" horiz-adv-x="970" d="M72 1288q55 57 156.5 106.5t240.5 49.5q164 0 276.5 -93.5t112.5 -248.5q0 -66 -17.5 -119t-51 -91t-57 -57.5t-62.5 -43.5q-154 -98 -158 -267q0 -27 4 -71h-235l-11 53q-25 123 20.5 217t160.5 176q6 4 29.5 20.5t31.5 22.5t26.5 22.5t25.5 30t14.5 31.5t7.5 39 q0 72 -47 106.5t-121 34.5q-25 0 -46.5 -3t-42 -11t-34.5 -13t-32.5 -17.5t-25 -17.5t-24.5 -18l-16 -14zM258 143q0 70 49 120t121 50q70 0 119 -50t49 -119.5t-50 -120t-122 -50.5q-70 0 -118 49t-48 121z" />
<glyph unicode="@" horiz-adv-x="1824" d="M82 412q0 240 108.5 440.5t304 319t435.5 118.5q348 0 580.5 -201.5t232.5 -523.5q0 -264 -136.5 -434t-328.5 -170q-74 0 -122 15.5t-70.5 45t-30.5 57t-13 71.5q-137 -164 -307 -164q-127 0 -197.5 78.5t-70.5 228.5q0 268 157.5 456.5t424.5 188.5q133 0 290 -84 q-41 -137 -129 -551q-25 -119 -10.5 -151.5t84.5 -32.5q94 0 155.5 125t61.5 321q0 244 -156.5 392.5t-414.5 148.5q-246 0 -425 -204t-179 -490q0 -274 160.5 -433t406.5 -159q160 0 295 45l37 -174q-176 -57 -332 -58q-358 0 -584.5 209.5t-226.5 569.5zM692 285 q0 -129 86 -129q70 0 148 70.5t102 185.5l76 350q-31 14 -74 14q-168 0 -253 -148t-85 -343z" />
<glyph unicode="A" horiz-adv-x="1191" d="M-16 0l467 1427h309l448 -1427h-307l-100 338h-418l-100 -338h-299zM453 575h278q-47 150 -78 287l-57 252q-41 -168 -68 -274q-40 -159 -75 -265z" />
<glyph unicode="B" horiz-adv-x="1228" d="M143 0v1423h482q131 0 207.5 -22.5t142.5 -79.5q117 -102 117 -254q0 -147 -97 -238q-51 -49 -131 -73q135 -39 209 -130t74 -229q0 -158 -97.5 -271.5t-275.5 -121.5q-90 -4 -182 -4h-449zM426 854h170q86 0 123 18q29 16 51.5 59.5t22.5 86.5q0 47 -22.5 88t-59.5 55 q-45 18 -119 19h-166v-326zM430 233h186q92 0 134 33q74 55 73 166q0 61 -28.5 110.5t-75.5 63.5q-41 12 -111 12h-178v-385z" />
<glyph unicode="C" horiz-adv-x="1155" d="M82 682q0 262 96 442q82 156 227.5 243t317.5 87q104 0 202.5 -30.5t157.5 -82.5l-129 -194q-106 80 -227 80q-72 0 -137.5 -33t-104.5 -90q-80 -119 -79 -367q0 -274 59 -381q88 -160 274 -159q129 0 244 92l131 -180q-162 -133 -395 -134q-293 0 -465 197 q-172 193 -172 510z" />
<glyph unicode="D" horiz-adv-x="1265" d="M143 0v1423h287q133 0 248 -8q186 -16 311 -141q195 -193 195 -567q0 -301 -144 -494q-139 -188 -346 -205q-106 -8 -205 -8h-346zM434 233h154q141 0 207.5 110t66.5 337q0 283 -71 399q-72 119 -226 119h-131v-965z" />
<glyph unicode="E" horiz-adv-x="1013" d="M143 0v1423h811l-36 -233h-488v-330h408v-233h-404v-381h539v-246h-830z" />
<glyph unicode="F" horiz-adv-x="894" d="M143 0v1423h772l-32 -231h-453v-326h363v-233h-363v-633h-287z" />
<glyph unicode="G" horiz-adv-x="1314" d="M82 698q0 449 297 648q150 100 346 100q264 0 453 -164l-152 -178q-135 111 -297 110q-129 0 -205 -71q-121 -115 -121 -459q0 -299 107 -405q84 -80 223 -80q94 0 162 34v324h-217l-37 234h551v-680q-215 -127 -473 -127q-317 0 -486 217q-151 192 -151 497z" />
<glyph unicode="H" horiz-adv-x="1271" d="M143 0v1423h285v-553h410v553h290v-1423h-290v635h-410v-635h-285z" />
<glyph unicode="I" horiz-adv-x="585" d="M143 0v1423h299v-1423h-299z" />
<glyph unicode="J" horiz-adv-x="587" d="M-41 -188q125 76 166 172q29 66 29 262v1177h290v-1147q0 -197 -20 -278q-29 -119 -124 -205t-208 -129z" />
<glyph unicode="K" horiz-adv-x="1204" d="M143 0v1423h293v-649l406 649h352l-455 -659l506 -764h-377l-432 743v-743h-293z" />
<glyph unicode="L" horiz-adv-x="956" d="M143 0v1423h293v-1185h510l-51 -238h-752z" />
<glyph unicode="M" horiz-adv-x="1675" d="M102 0l134 1423h366l186 -712q33 -125 50 -226q18 106 51 232l192 706h365l127 -1423h-281l-53 760q-10 150 -10 237q-23 -109 -53 -219l-226 -778h-243l-203 748q-39 147 -58 251q0 -109 -10 -256l-49 -743h-285z" />
<glyph unicode="N" horiz-adv-x="1275" d="M143 0v1423h318l272 -569q104 -221 156 -403q-18 201 -23 391l-6 581h273v-1423h-299l-244 545q-158 352 -193 467q8 -104 15 -404l8 -608h-277z" />
<glyph unicode="O" horiz-adv-x="1392" d="M82 707q0 231 84 406t237 259q129 70 295 70q285 0 449 -193.5t164 -529.5q0 -242 -82 -417t-236 -259q-119 -66 -284 -66q-162 0 -271.5 47.5t-191.5 153.5q-164 212 -164 529zM401 707q0 -371 127 -461q68 -49 170 -49q150 0 216.5 120.5t66.5 393.5q0 211 -37 329 q-20 68 -83.5 124.5t-166.5 56.5q-72 0 -131 -34t-90 -91q-72 -135 -72 -389z" />
<glyph unicode="P" horiz-adv-x="1159" d="M143 0v1423h375q170 0 249 -16t146 -53q205 -113 205 -369q0 -141 -64.5 -249.5t-181.5 -164.5q-100 -47 -284 -47h-158v-524h-287zM430 758h150q88 0 124.5 14t65.5 59q35 55 35 148q0 100 -51.5 156.5t-141.5 56.5h-182v-434z" />
<glyph unicode="Q" horiz-adv-x="1392" d="M82 707q0 231 84 407t237 258q129 70 295 70q285 0 449 -193.5t164 -529.5q0 -227 -75 -397t-206 -256q31 -10 127 -72q98 -59 176 -60l127 11l-76 -187q-41 -25 -127 -24q-109 0 -262 100q-150 100 -288 143q-160 0 -269.5 47.5t-191.5 153.5q-164 212 -164 529z M401 707q0 -371 127 -461q68 -49 170 -49q150 0 216.5 120.5t66.5 393.5q0 211 -37 329q-20 68 -83.5 124.5t-166.5 56.5q-72 0 -131 -34t-90 -91q-72 -135 -72 -389z" />
<glyph unicode="R" horiz-adv-x="1196" d="M143 0v1423h531q188 0 303 -114.5t115 -302.5q0 -160 -93.5 -276t-224.5 -118q37 -29 60 -59q82 -102 342 -553h-338q-74 125 -133 233q-111 199 -155 265.5t-81 83.5q-23 10 -45 12v-594h-281zM424 809h96q162 0 215 47q55 51 56 143q0 137 -103 175q-55 20 -162 20 h-102v-385z" />
<glyph unicode="S" horiz-adv-x="1196" d="M61 98l107 224q219 -115 391 -115q250 0 250 194q0 133 -186 185l-158 43q-207 57 -281 180q-59 96 -59 217q0 195 142.5 317.5t367.5 122.5q276 0 475 -143l-135 -205q-180 109 -332 109q-88 0 -143.5 -46t-55.5 -118q0 -55 35 -87t123 -56l172 -48 q174 -47 267.5 -156.5t93.5 -266.5q0 -217 -161 -348.5t-427 -131.5q-261 0 -486 129z" />
<glyph unicode="T" horiz-adv-x="1005" d="M20 1186v237h1027l-48 -237h-340v-1186h-290v1186h-349z" />
<glyph unicode="U" horiz-adv-x="1302" d="M139 432v991h293v-936q0 -123 25 -170q51 -98 194 -98q94 0 150.5 44t66.5 122q4 31 4 127v911h291v-958q0 -156 -22 -223q-35 -104 -155 -186.5t-329 -82.5q-336 0 -456 191q-35 55 -48.5 110.5t-13.5 157.5z" />
<glyph unicode="V" horiz-adv-x="1157" d="M-41 1423h313l236 -741q37 -113 65 -248q25 117 82 285l242 704h301l-496 -1433h-260z" />
<glyph unicode="W" horiz-adv-x="1703" d="M0 1423h303l123 -561q25 -119 44 -235.5t26 -175.5l6 -58q27 240 73 455l127 575h314l131 -637q27 -133 61 -376q4 45 31 211.5t47 261.5l117 540h301l-344 -1435h-313l-127 579q-51 231 -68 410q-18 -168 -68 -406l-118 -583h-326z" />
<glyph unicode="X" horiz-adv-x="1150" d="M-31 0l447 762l-385 661h350l192 -383l195 383h342l-371 -643l443 -780h-346l-256 502l-254 -502h-357z" />
<glyph unicode="Y" horiz-adv-x="1093" d="M-51 1423h344l182 -389q45 -94 72 -182q39 96 76 178l184 393h338l-455 -837v-586h-299v586z" />
<glyph unicode="Z" horiz-adv-x="1085" d="M61 0v201l525 866l88 129q-59 -10 -146 -10h-438l64 237h852v-206l-529 -891l-74 -101q84 8 142 8h479l-74 -233h-889z" />
<glyph unicode="[" horiz-adv-x="614" d="M143 -319v1818h430v-184h-184v-1450h184v-184h-430z" />
<glyph unicode="\" horiz-adv-x="886" d="M20 1487l234 72l612 -1596l-231 -72z" />
<glyph unicode="]" horiz-adv-x="614" d="M41 -135h184v1450h-184v184h430v-1818h-430v184z" />
<glyph unicode="^" horiz-adv-x="1220" d="M92 702l369 748h299l368 -748h-290l-228 488l-229 -488h-289z" />
<glyph unicode="_" horiz-adv-x="1024" d="M0 -154h1024v-102h-1024v102z" />
<glyph unicode="`" horiz-adv-x="665" d="M61 1346l119 213l424 -267l-84 -151z" />
<glyph unicode="a" horiz-adv-x="1048" d="M72 289q0 360 503 360q39 0 62 -2v43q0 90 -24.5 123t-98.5 33q-127 0 -303 -119l-117 197q72 45 170 86q145 61 287 61q131 0 219 -47t119 -135q19 -56 18 -166v-23l-6 -352v-19q0 -78 15 -119q17 -46 83 -95l-145 -168q-106 45 -147 127q-37 -37 -64 -56 q-80 -57 -211 -57q-174 0 -267 85t-93 243zM365 299q0 -61 33.5 -99t86.5 -38q78 0 144 71l4 226h-12q-145 0 -200.5 -34t-55.5 -126z" />
<glyph unicode="b" horiz-adv-x="1130" d="M117 0q27 61 26 223v971q0 182 -18 258l281 66q10 -90 10 -187v-248q0 -68 -6 -92q78 84 223 84q193 0 304.5 -143.5t111.5 -388.5q0 -328 -195 -482q-102 -82 -229 -81q-145 0 -234 96q-10 -47 -29 -76h-245zM420 281q76 -68 153 -68q100 0 134 82q31 72 30 242 q0 125 -12 178q-31 133 -150 133q-80 0 -155 -84v-483z" />
<glyph unicode="c" horiz-adv-x="931" d="M82 516q0 338 215 485q115 78 260 78q115 0 203 -47q43 -23 102 -74l-133 -180q-88 82 -166 82q-92 0 -135 -84t-43 -268q0 -195 53 -264q47 -59 123 -60q90 0 189 86l16 15l125 -166q-49 -49 -96 -78q-113 -66 -256 -66q-217 0 -337 142.5t-120 398.5z" />
<glyph unicode="d" horiz-adv-x="1124" d="M82 506q0 246 125 399.5t323 153.5q113 0 187 -60q-8 45 -8 156v361l272 -43v-1090q0 -297 39 -383h-246q-10 20 -16 61q-100 -88 -242 -88q-199 0 -316.5 144.5t-117.5 388.5zM387 504q0 -168 41 -233.5t150 -65.5q80 0 135 67v500q-78 68 -150 68q-92 0 -134 -80 t-42 -256z" />
<glyph unicode="e" horiz-adv-x="1036" d="M82 514q0 270 131 416q127 141 330 141q197 0 303 -110q139 -141 139 -459v-64h-606v-8q0 -121 57.5 -187.5t163.5 -66.5q141 0 266 105l107 -164q-178 -145 -395 -146q-225 0 -360.5 147.5t-135.5 395.5zM383 639h317v12q0 106 -32 158q-41 61 -121 61q-78 0 -121 -59 t-43 -168v-4z" />
<glyph unicode="f" horiz-adv-x="622" d="M49 860v189h101q-10 72 -11 143q0 156 88 241t250 85q131 0 248 -66l-88 -170q-72 35 -113 35q-53 0 -83.5 -32t-30.5 -87v-149h266l-70 -189h-194v-860h-269v860h-94z" />
<glyph unicode="g" horiz-adv-x="1132" d="M61 -102q0 57 25 106h254q-12 -29 -12 -67q0 -129 196 -130q117 0 172 35q68 41 68 107q0 121 -193 125l-116 2q-180 2 -252 33q-80 31 -80 137q0 61 38 103t154 73q-225 57 -225 291q0 162 121 258t321 96q80 0 189 -27q90 -23 129 -22q117 0 217 90l115 -174 q-84 -78 -193 -78q-23 0 -71 6q61 -74 61 -172q0 -135 -109.5 -223t-277.5 -88q-20 0 -41 2q-109 -51 -109 -86q0 -25 45 -25l148 -2q217 -2 317 -94q90 -84 90 -223q0 -127 -84 -217q-127 -135 -413 -135q-276 0 -398 112q-86 81 -86 187zM367 711q0 -150 161 -150 q168 0 168 150q0 74 -44 114.5t-121.5 40.5t-120.5 -40.5t-43 -114.5z" />
<glyph unicode="h" horiz-adv-x="1157" d="M123 1452l280 66q18 -86 19 -256v-209q0 -18 -2 -51t-2 -37q53 51 135 81.5t162 30.5q100 0 174 -40t98 -109q27 -78 27 -195v-733h-269v705q0 78 -24.5 110.5t-81.5 32.5q-111 0 -217 -96v-752h-279v1212q0 168 -20 240z" />
<glyph unicode="i" horiz-adv-x="561" d="M113 1337.5q0 69.5 50 119.5t122 50q70 0 118 -49t48 -120.5t-49.5 -121t-120.5 -49.5q-70 0 -119 50.5t-49 120zM143 0v1030l275 43v-1073h-275z" />
<glyph unicode="j" horiz-adv-x="559" d="M10 -299q61 51 101 119q33 59 32 200v986l273 65v-1042q0 -225 -78 -326q-74 -96 -213 -154zM113 1337q0 72 50 122t119.5 50t120 -49t50.5 -119q0 -72 -50.5 -122t-121.5 -50q-70 0 -119 49t-49 119z" />
<glyph unicode="k" horiz-adv-x="1058" d="M125 1454l276 68q16 -104 17 -340v-1182h-275v1182q0 149 -18 272zM424 594l268 455h330l-334 -439l412 -610h-324z" />
<glyph unicode="l" horiz-adv-x="575" d="M129 1452l281 64q14 -80 14 -273v-817q0 -201 18 -233q16 -29 56 -29q16 0 30 4l47 -164q-74 -29 -163 -29q-88 0 -153.5 39t-90.5 105q-25 63 -25 235v783q0 184 -14 315z" />
<glyph unicode="m" horiz-adv-x="1624" d="M104 999l248 68q23 -37 37 -106q111 106 256 106q129 0 213 -86q20 -20 41 -51q135 137 297 137q131 0 207 -66q45 -39 61.5 -93t16.5 -163v-745h-267v692q0 94 -16 122t-70 28q-84 0 -182 -88v-754h-260v682q0 98 -18.5 130t-75.5 32q-92 0 -180 -80v-764h-269v731 q0 198 -39 268z" />
<glyph unicode="n" horiz-adv-x="1114" d="M106 1006l244 69q39 -68 39 -131q78 53 121 78q86 45 188 45q88 0 158 -42t94 -110q20 -55 21 -149v-766h-271v682q0 90 -19 122t-73 32q-86 0 -190 -95v-741h-275v760q0 142 -37 246z" />
<glyph unicode="o" d="M72 520q0 248 129 398.5t342 150.5q223 0 356 -158q121 -141 121 -383q0 -256 -131 -405q-129 -145 -346 -146q-213 0 -342 147.5t-129 395.5zM377 526q0 -182 35 -264q18 -41 57 -63.5t82 -22.5q90 0 130 84t40 270q0 211 -55 281q-43 55 -119 55q-104 0 -141 -106 q-29 -87 -29 -234z" />
<glyph unicode="p" horiz-adv-x="1130" d="M127 1026l244 43q16 -57 18 -98q35 43 106.5 70.5t151.5 27.5q113 0 207 -63q195 -131 195 -453q0 -168 -32 -268.5t-114 -188.5q-113 -119 -280 -119q-125 0 -220 56q4 -25 5 -86v-328l-265 -70v1213q0 164 -16 264zM410 256q74 -61 151 -61q102 0 145.5 75.5 t43.5 255.5q0 158 -27 232q-31 88 -131 88q-106 0 -182 -80v-510z" />
<glyph unicode="q" horiz-adv-x="1128" d="M82 508q0 264 106 401q59 76 146.5 121t181.5 45q82 0 155.5 -31.5t90.5 -74.5q2 43 20 82h228q-25 -106 -25 -310v-1126l-260 -70v398q0 74 6 106q-84 -74 -209 -74q-221 0 -330.5 152t-109.5 381zM383 543q0 -57 1 -89t11.5 -87.5t27.5 -86t54 -55t90 -24.5 q90 0 158 80v493q-68 72 -158 72q-184 0 -184 -303z" />
<glyph unicode="r" horiz-adv-x="710" d="M104 1008l246 65q37 -66 43 -149q111 150 246 149q49 0 102 -22l-75 -242q-39 20 -80 20q-92 0 -168 -88v-741h-275v700q0 206 -39 308z" />
<glyph unicode="s" horiz-adv-x="985" d="M51 88l99 201q195 -119 348 -119q59 0 99 34t40 85q0 53 -39 82.5t-123 46.5l-123 22q-51 8 -107.5 40t-84.5 67q-59 72 -60 188q0 154 112 248t294 94q174 0 375 -98l-90 -184q-150 76 -259 75q-59 0 -96 -27.5t-37 -74.5q0 -41 30 -64.5t101 -41.5l127 -33 q145 -37 209 -119q57 -72 58 -178q0 -164 -124 -264.5t-325 -100.5q-193 0 -424 121z" />
<glyph unicode="t" horiz-adv-x="698" d="M39 860v189h104q0 170 11 247l278 70q-16 -154 -16 -317h246l-70 -189h-176v-526q0 -100 24.5 -134t94.5 -34q29 0 98 20l35 -163q-115 -47 -224 -48q-104 0 -181 42t-101 112q-18 51 -19 162v569h-104z" />
<glyph unicode="u" horiz-adv-x="1097" d="M133 352v672l270 51v-674q0 -127 23 -172q25 -49 96 -49q51 0 102.5 31t67.5 70v737l262 55v-801q0 -115 64 -190l-195 -111q-55 39 -82 103q-104 -100 -276 -101q-111 0 -197 47.5t-112 122.5q-23 66 -23 209z" />
<glyph unicode="v" horiz-adv-x="950" d="M-20 1032l280 35l152 -473q41 -127 67 -252q14 111 64 266l141 441h287l-383 -1049h-228z" />
<glyph unicode="w" horiz-adv-x="1431" d="M0 1030l272 31l86 -404l60 -325q27 186 76 364l98 353h258l84 -347l78 -370q29 207 57 342l80 375h283l-299 -1049h-252l-95 360q-43 160 -59 254q-6 43 -16 105q-8 -57 -25 -135q-20 -90 -90 -369l-53 -215h-256z" />
<glyph unicode="x" horiz-adv-x="1024" d="M-31 0l387 559l-290 440l284 80q92 -154 142 -256q16 -33 32 -69q23 61 92 204q27 55 50 91h323l-311 -484l377 -565h-348l-111 193q-10 18 -44 83.5t-38 71.5q-25 -72 -104 -203l-88 -145h-353z" />
<glyph unicode="y" horiz-adv-x="1017" d="M-10 1032l280 33l183 -612q6 -27 19 -78t23.5 -92t12.5 -47q0 31 33 167q18 76 41 146l157 500h289l-381 -1065q-53 -150 -98 -226.5t-103 -119.5q-104 -76 -253 -97l-95 180q117 33 170 70q43 31 78 86q29 47 60 123h-70l-98 295z" />
<glyph unicode="z" horiz-adv-x="960" d="M61 0v170l494 686h-453v193h779v-189l-463 -670h481l-65 -190h-773z" />
<glyph unicode="{" horiz-adv-x="782" d="M41 473v234q27 0 57.5 5t71.5 17t66.5 43t25.5 76v354q0 152 72 224.5t192 72.5h215v-233h-100q-45 0 -73.5 -12.5t-40 -34t-15.5 -40t-4 -44.5v-330q0 -68 -18.5 -112t-54.5 -63.5t-62.5 -26.5t-69.5 -11v-4q43 -2 70.5 -9.5t62.5 -27t53.5 -63.5t18.5 -111v-332 q0 -27 4 -45t15.5 -39.5t40 -34t73.5 -12.5h100v-233h-215q-117 0 -190.5 73.5t-73.5 225.5v352q0 45 -25.5 75.5t-66.5 43t-71.5 17.5t-57.5 5z" />
<glyph unicode="|" horiz-adv-x="544" d="M143 -426v1974h258v-1974h-258z" />
<glyph unicode="}" horiz-adv-x="782" d="M41 -86h100q45 0 74 12.5t40 34t15 39.5t4 45v330q0 68 18.5 111.5t54.5 63t62.5 27t69.5 11.5v4q-43 2 -70.5 9t-62.5 26.5t-53.5 63.5t-18.5 112v332q0 27 -4 45t-15 39.5t-40 34t-74 12.5h-100v233h221q113 0 185.5 -73.5t72.5 -225.5v-352q0 -45 25.5 -76t65.5 -43 t71 -17t59 -5v-234q-29 0 -59.5 -5t-70.5 -17.5t-65.5 -43t-25.5 -75.5v-355q0 -152 -71.5 -224t-192.5 -72h-215v233z" />
<glyph unicode="~" horiz-adv-x="1130" d="M92 643q92 176 256 176q80 0 227 -65q14 -6 44 -19.5t47.5 -20.5t41 -16.5t42 -13.5t34.5 -4q39 0 76 25.5t52.5 45t52.5 68.5l73 -221q-92 -176 -256 -176q-80 0 -227 65q-14 6 -44 19.5t-47.5 21t-41 16.5t-42 13t-34.5 4q-39 0 -76 -25.5t-52 -45t-52 -68.5z" />
<glyph unicode="&#xa1;" horiz-adv-x="604" d="M133 899q0 70 50 120t122 50q70 0 118 -49t48 -121t-49 -121t-121 -49q-70 0 -119 50t-49 120zM141 -412l58 1002h209l61 -955z" />
<glyph unicode="&#xa2;" horiz-adv-x="931" d="M82 516q0 338 215 485q63 43 147 64v199h193v-197q53 0 123 -35q43 -23 102 -74l-133 -180q-88 82 -166 82q-92 0 -135 -84t-43 -268q0 -195 53 -264q47 -59 123 -60q90 0 189 86l16 15l125 -166q-49 -49 -96 -78q-72 -43 -158 -57v-211h-193v211q-172 29 -267 168 t-95 364z" />
<glyph unicode="&#xa3;" horiz-adv-x="1193" d="M82 0v233h197v406h-197v209h197v145q0 197 136 339.5t371 142.5q274 0 428 -140l-204 -219q-88 88 -187 88q-127 0 -182 -73.5t-55 -182.5v-100h319v-209h-319v-406h518v-233h-1022z" />
<glyph unicode="&#xa4;" horiz-adv-x="1277" d="M61 442v201h205v39q0 82 4 119h-209v200h250q23 70 51 123q82 156 227.5 243t317.5 87q176 0 299 -72l-67 -235q-106 80 -228 80q-72 0 -137 -33t-104 -90q-27 -37 -47 -103h395v-200h-426q0 -10 -1 -30.5t-1 -33.5q0 -66 2 -94h426v-201h-402q12 -53 33 -86 q88 -160 275 -159q129 0 243 92l70 -221q-80 -51 -149.5 -72t-184.5 -21q-293 0 -465 197q-100 113 -143 270h-234z" />
<glyph unicode="&#xa5;" horiz-adv-x="1142" d="M-27 1423h344l183 -389q45 -94 71 -182q39 96 76 178l184 393h338l-313 -573h211v-211h-324l-28 -53v-103h352v-211h-352v-272h-299v272h-346v211h346v103l-29 53h-317v211h206z" />
<glyph unicode="&#xa6;" horiz-adv-x="544" d="M143 422h258v-848h-258v848zM143 700v848h258v-848h-258z" />
<glyph unicode="&#xa7;" horiz-adv-x="1204" d="M82 -51l262 129q16 -70 82 -105.5t141 -35.5q61 0 112.5 24.5t51.5 81.5q0 45 -46 81t-113.5 60.5t-148.5 61.5t-148.5 76.5t-113.5 112.5t-46 165q0 193 178 303q-129 86 -129 236q0 113 68.5 194.5t166 117.5t205.5 36q150 0 276 -52.5t183 -170.5l-258 -148 q-20 57 -72.5 91t-116.5 34q-53 0 -93 -28.5t-40 -79.5q0 -55 65.5 -98.5t160 -79t188.5 -78.5t159.5 -121t65.5 -181q0 -82 -48 -155.5t-124 -110.5q113 -90 113 -243q0 -127 -82 -215.5t-191.5 -124t-230.5 -35.5q-356 0 -477 258zM397 657q0 -35 12.5 -61.5t44 -48 t47 -29.5t60.5 -29l209 -96q70 41 70 125q0 86 -133 148l-238 112q-72 -41 -72 -121z" />
<glyph unicode="&#xa8;" horiz-adv-x="950" d="M102 1300.5q0 63.5 47.5 110.5t112.5 47q63 0 108.5 -46t45.5 -112q0 -63 -46 -110t-112 -47q-63 0 -109.5 47t-46.5 110.5zM535 1300.5q0 65.5 47 111.5t112 46q63 0 108.5 -46t45.5 -112q0 -63 -47 -110t-110.5 -47t-109.5 46t-46 111.5z" />
<glyph unicode="&#xa9;" horiz-adv-x="1687" d="M82 725q0 315 223 538.5t538.5 223.5t539 -223.5t223.5 -538.5t-223.5 -538.5t-539 -223.5t-538.5 223.5t-223 538.5zM291 725q0 -238 161.5 -408t391 -170t391.5 170t162 408t-162 408t-391.5 170t-391 -170t-161.5 -408zM483 709q0 186 102.5 305t272.5 119 q135 0 229 -78l-94 -135q-76 51 -133 51q-154 0 -153 -234q0 -139 37.5 -200.5t123.5 -61.5q76 0 138 57l100 -126q-117 -88 -250 -89q-170 0 -271.5 107t-101.5 285z" />
<glyph unicode="&#xaa;" horiz-adv-x="870" d="M61 473v160h748v-160h-748zM86 993q0 270 379 271h45v30q0 68 -18.5 92.5t-73.5 24.5q-98 0 -228 -88l-88 147q39 25 129 64q109 47 215 47q205 0 252 -137q16 -45 15 -141l-4 -265v-14q0 -63 14 -95t59 -65l-98 -127q-96 39 -121 97q-33 -31 -49 -43q-59 -43 -158 -43 q-129 0 -199.5 64t-70.5 181zM305 1001q0 -45 25.5 -73.5t66.5 -28.5q57 0 107 53l4 170h-10q-109 0 -151 -25.5t-42 -95.5z" />
<glyph unicode="&#xab;" horiz-adv-x="1110" d="M51 510l326 479l186 -125l-237 -354l237 -354l-186 -125zM547 510l325 479l187 -125l-238 -354l238 -354l-187 -125z" />
<glyph unicode="&#xac;" horiz-adv-x="1067" d="M82 406v223h903v-510h-252v287h-651z" />
<glyph unicode="&#xad;" horiz-adv-x="655" d="M82 442v238h491v-238h-491z" />
<glyph unicode="&#xae;" horiz-adv-x="1687" d="M82 725q0 315 223 538.5t538.5 223.5t539 -223.5t223.5 -538.5t-223.5 -538.5t-539 -223.5t-538.5 223.5t-223 538.5zM291 725q0 -238 161.5 -408t391 -170t391.5 170t162 408t-162 408t-391.5 170t-391 -170t-161.5 -408zM561 350v783h313q115 0 183.5 -66t68.5 -174 q0 -86 -51 -145.5t-129 -67.5q47 -18 105 -107l137 -223h-236q-72 117 -82 133q-96 164 -110 176v-309h-199zM760 813h53q57 0 79.5 18.5t22.5 59.5q0 80 -100 80h-55v-158z" />
<glyph unicode="&#xaf;" horiz-adv-x="724" d="M41 1364v160h643v-160h-643z" />
<glyph unicode="&#xb0;" horiz-adv-x="821" d="M61 1087q0 160 95.5 258.5t251.5 98.5q160 0 262 -103q90 -90 90 -249q0 -168 -96 -263q-98 -94 -256 -94t-252.5 95t-94.5 257zM285 1094q0 -119 22 -154q33 -51 103 -51q66 0 94 49t28 158q0 125 -40 164q-33 33 -86 32q-76 0 -103 -61q-18 -45 -18 -137z" />
<glyph unicode="&#xb1;" horiz-adv-x="1030" d="M82 580v231h307v281h252v-281h307v-231h-307v-293h-252v293h-307zM86 0v231h858v-231h-858z" />
<glyph unicode="&#xb2;" horiz-adv-x="765" d="M61 1210q158 133 338 133q117 0 188.5 -67.5t71.5 -175.5q0 -55 -26.5 -113.5t-83.5 -121t-89 -94.5t-100 -91q12 0 37 1t35 1h273l-48 -170h-563v137q143 133 211 205q127 131 127 227q0 86 -80 86q-66 0 -176 -86z" />
<glyph unicode="&#xb3;" horiz-adv-x="749" d="M61 655q84 -14 125 -14q123 0 195 46t72 116q0 25 -10.5 41t-22.5 24.5t-36 12.5t-38 5t-41 1h-82v166q70 -8 105 -9q117 0 116 80q0 68 -84 68q-94 0 -186 -74l-111 131q156 115 318 115q121 0 204 -63.5t83 -159.5q0 -109 -97 -172q117 -59 117 -178q0 -133 -129 -214 t-326 -81q-55 0 -116 8z" />
<glyph unicode="&#xb4;" horiz-adv-x="665" d="M61 1292l424 267l119 -213l-459 -205z" />
<glyph unicode="&#xb5;" horiz-adv-x="1107" d="M143 -451v1475l271 51v-674q0 -127 22 -172q25 -49 96 -49q51 0 102.5 31t67.5 70v737l263 55v-801q0 -115 63 -190l-194 -111q-55 39 -82 103q-104 -100 -277 -101q-39 0 -72 29q4 -41 5 -63v-320z" />
<glyph unicode="&#xb6;" horiz-adv-x="1212" d="M41 1065q0 199 126 292t351 93h551v-1708h-184v1561h-219v-1561h-185v950q-197 0 -318.5 104.5t-121.5 268.5z" />
<glyph unicode="&#xb7;" horiz-adv-x="528" d="M82 561q0 76 54 130t130 54t128 -54t52 -132q0 -74 -54 -127t-130 -53t-128 53t-52 129z" />
<glyph unicode="&#xb8;" horiz-adv-x="606" d="M102 -358l62 129q70 -31 106 -31q20 0 36 12t16 25q0 41 -52 41l-55 -13l-27 41l50 179l147 -13l-29 -78q74 -8 111 -52t37 -109q0 -78 -59.5 -129.5t-163.5 -51.5q-89 1 -179 50z" />
<glyph unicode="&#xb9;" horiz-adv-x="643" d="M61 1149l275 182h139v-653h107v-166h-441v166h131v426q-96 -51 -153 -70z" />
<glyph unicode="&#xba;" horiz-adv-x="870" d="M61 473v160h748v-160h-748zM76 1153q0 186 97 299t255 113q170 0 268 -117q90 -109 90 -289q0 -188 -98 -301q-96 -111 -260 -110q-160 0 -256 110.5t-96 294.5zM309 1159q0 -121 27 -186q12 -29 41 -47.5t57 -18.5q63 0 92 60.5t29 193.5q0 158 -39 203q-33 37 -84 37 q-70 0 -100 -76q-23 -57 -23 -166z" />
<glyph unicode="&#xbb;" horiz-adv-x="1110" d="M51 156l238 354l-238 354l187 125l325 -479l-325 -479zM547 156l237 354l-237 354l186 125l326 -479l-326 -479z" />
<glyph unicode="&#xbc;" horiz-adv-x="1875" d="M61 1149l275 182h139v-653h107v-166h-441v166h131v426q-96 -51 -153 -70zM264 -315l1082 1880h221l-1082 -1880h-221zM1167 145v129l224 547h215l-172 -424q-12 -31 -39 -78h141q0 63 23 289l167 37v-213v-100l-2 -15q4 0 10.5 1t8.5 1h72v-174h-76l-15 2q0 -2 1 -10 t1 -12v-154l-196 -22v186l2 10h-365z" />
<glyph unicode="&#xbd;" horiz-adv-x="1871" d="M61 1149l275 182h139v-653h107v-166h-441v166h131v426q-96 -51 -153 -70zM221 -315l1082 1880h221l-1082 -1880h-221zM1167 698q158 133 338 133q117 0 188.5 -67.5t71.5 -175.5q0 -55 -26.5 -113.5t-84 -121t-89 -94.5t-99.5 -91q12 0 37 1t35 1h272l-47 -170h-563v137 q143 133 211 205q127 131 127 227q0 86 -80 86q-66 0 -176 -86z" />
<glyph unicode="&#xbe;" horiz-adv-x="1982" d="M61 655q84 -14 125 -14q123 0 195 46t72 116q0 25 -10.5 41t-22.5 24.5t-36 12.5t-38 5t-41 1h-82v166q70 -8 105 -9q117 0 116 80q0 68 -84 68q-94 0 -186 -74l-111 131q156 115 318 115q121 0 204 -63.5t83 -159.5q0 -109 -97 -172q117 -59 117 -178q0 -133 -129 -214 t-326 -81q-55 0 -116 8zM371 -315l1081 1880h221l-1081 -1880h-221zM1274 145v129l223 547h215l-172 -424q-12 -31 -39 -78h141q0 63 23 289l168 37v-213v-100l-2 -15q4 0 10 1t8 1h72v-174h-76l-14 2q0 -2 1 -10t1 -12v-154l-197 -22v186l2 10h-364z" />
<glyph unicode="&#xbf;" horiz-adv-x="970" d="M113 -59q0 66 17 119t51 90.5t57.5 57t62.5 44.5q154 98 158 266q0 27 -4 72h235l10 -53q25 -123 -20 -217.5t-160 -176.5q-6 -4 -29.5 -20.5t-31.5 -22.5t-26.5 -22.5t-26 -29.5t-14.5 -31.5t-7 -39.5q0 -72 47 -106.5t121 -34.5q25 0 46.5 3t42 11.5t34.5 13.5 t32.5 17.5t24.5 17.5t25 19l16 12l125 -176q-55 -57 -156.5 -106t-240.5 -49q-164 0 -276.5 93t-112.5 249zM375 899q0 70 50 120t122 50q70 0 118 -49t48 -121t-49.5 -121t-120.5 -49q-70 0 -119 50t-49 120z" />
<glyph unicode="&#xc0;" horiz-adv-x="1191" d="M-16 0l467 1427h309l448 -1427h-307l-100 338h-418l-100 -338h-299zM301 1673l119 213l424 -266l-84 -152zM453 575h278q-47 150 -78 287l-57 252q-41 -168 -68 -274q-40 -159 -75 -265z" />
<glyph unicode="&#xc1;" horiz-adv-x="1191" d="M-16 0l467 1427h309l448 -1427h-307l-100 338h-418l-100 -338h-299zM373 1620l424 266l118 -213l-458 -205zM453 575h278q-47 150 -78 287l-57 252q-41 -168 -68 -274q-40 -159 -75 -265z" />
<glyph unicode="&#xc2;" horiz-adv-x="1191" d="M-16 0l467 1427h309l448 -1427h-307l-100 338h-418l-100 -338h-299zM221 1608l369 276l377 -276l-93 -150l-284 156l-277 -156zM453 575h278q-47 150 -78 287l-57 252q-41 -168 -68 -274q-40 -159 -75 -265z" />
<glyph unicode="&#xc3;" horiz-adv-x="1191" d="M-16 0l467 1427h309l448 -1427h-307l-100 338h-418l-100 -338h-299zM215 1681q94 119 254 119q61 0 135 -34.5t133 -34.5q84 0 140 61l84 -156q-92 -119 -254 -118q-63 0 -136 34.5t-133 34.5q-84 0 -139 -59zM453 575h278q-47 150 -78 287l-57 252q-41 -168 -68 -274 q-40 -159 -75 -265z" />
<glyph unicode="&#xc4;" horiz-adv-x="1191" d="M-16 0l467 1427h309l448 -1427h-307l-100 338h-418l-100 -338h-299zM231 1628.5q0 63.5 47.5 110.5t112.5 47q63 0 108.5 -46t45.5 -112q0 -63 -47 -110.5t-110.5 -47.5t-110 47.5t-46.5 111zM453 575h278q-47 150 -78 287l-57 252q-41 -168 -68 -274q-40 -159 -75 -265z M666 1628.5q0 65.5 47 111.5t112 46q63 0 108.5 -46t45.5 -112q0 -63 -47 -110.5t-110.5 -47.5t-109.5 46.5t-46 112z" />
<glyph unicode="&#xc5;" horiz-adv-x="1191" d="M-16 0l467 1427h309l448 -1427h-307l-100 338h-418l-100 -338h-299zM389 1677q0 88 64.5 152.5t152.5 64.5t150.5 -63.5t62.5 -153.5q0 -88 -63.5 -152.5t-153.5 -64.5q-88 0 -150.5 63.5t-62.5 153.5zM453 575h278q-47 150 -78 287l-57 252q-41 -168 -68 -274 q-40 -159 -75 -265zM500 1677q0 -43 30.5 -73.5t71.5 -30.5q43 0 74 30.5t31 73.5t-30 74t-71 31q-45 0 -75.5 -31t-30.5 -74z" />
<glyph unicode="&#xc6;" horiz-adv-x="1738" d="M-41 0l848 1423h864l-37 -233h-487v-330h407v-233h-403v-381h547v-246h-838v338h-391l-190 -338h-320zM602 575h258v330q0 145 10 166q-2 -2 -59 -109.5t-121.5 -226.5t-87.5 -160z" />
<glyph unicode="&#xc7;" horiz-adv-x="1155" d="M82 682q0 262 96 442q82 156 227.5 243t317.5 87q104 0 202.5 -30.5t157.5 -82.5l-129 -194q-106 80 -227 80q-72 0 -137.5 -33t-104.5 -90q-80 -119 -79 -367q0 -274 59 -381q88 -160 274 -159q131 0 244 92l131 -180q-162 -133 -395 -134h-35l-14 -41q74 -8 110.5 -52 t36.5 -109q0 -78 -59.5 -129.5t-163.5 -51.5q-88 0 -178 50l61 129q70 -31 107 -31q20 0 35.5 12t15.5 25q0 41 -51 41q-12 0 -29.5 -6.5t-26.5 -6.5l-26 41l41 150q-172 43 -289 176q-172 193 -172 510z" />
<glyph unicode="&#xc8;" horiz-adv-x="1013" d="M143 0v1423h811l-36 -233h-488v-330h408v-233h-404v-381h539v-246h-830zM227 1673l119 213l424 -266l-84 -152z" />
<glyph unicode="&#xc9;" horiz-adv-x="1013" d="M143 0v1423h811l-36 -233h-488v-330h408v-233h-404v-381h539v-246h-830zM276 1620l424 266l119 -213l-459 -205z" />
<glyph unicode="&#xca;" horiz-adv-x="1013" d="M143 0v1423h811l-36 -233h-488v-330h408v-233h-404v-381h539v-246h-830zM172 1608l369 276l377 -276l-93 -150l-284 156l-277 -156z" />
<glyph unicode="&#xcb;" horiz-adv-x="1013" d="M143 0v1423h811l-36 -233h-488v-330h408v-233h-404v-381h539v-246h-830zM176 1628.5q0 63.5 47 110.5t113 47q63 0 108 -46t45 -112q0 -63 -46 -110.5t-111 -47.5q-63 0 -109.5 47.5t-46.5 111zM608 1628.5q0 65.5 47 111.5t113 46q63 0 108.5 -46t45.5 -112 q0 -63 -47.5 -110.5t-111 -47.5t-109.5 46.5t-46 112z" />
<glyph unicode="&#xcc;" horiz-adv-x="585" d="M-10 1673l119 213l423 -266l-83 -152zM143 0v1423h299v-1423h-299z" />
<glyph unicode="&#xcd;" horiz-adv-x="585" d="M61 1620l424 266l119 -213l-459 -205zM143 0v1423h299v-1423h-299z" />
<glyph unicode="&#xce;" horiz-adv-x="585" d="M-80 1608l369 276l377 -276l-93 -150l-284 156l-277 -156zM143 0v1423h299v-1423h-299z" />
<glyph unicode="&#xcf;" horiz-adv-x="585" d="M-80 1628.5q0 63.5 47 110.5t113 47q63 0 108 -46t45 -112q0 -63 -47 -110.5t-110.5 -47.5t-109.5 47.5t-46 111zM143 0v1423h299v-1423h-299zM352 1628.5q0 65.5 47 111.5t113 46q63 0 108.5 -46t45.5 -112q0 -63 -46.5 -110.5t-111.5 -47.5q-63 0 -109.5 46.5 t-46.5 112z" />
<glyph unicode="&#xd0;" horiz-adv-x="1265" d="M-12 627v182h155v614h287q133 0 248 -8q186 -16 311 -141q195 -193 195 -567q0 -301 -144 -494q-139 -188 -346 -205q-106 -8 -205 -8h-346v627h-155zM434 233h154q141 0 207.5 110t66.5 337q0 283 -71 399q-72 119 -226 119h-131v-389h219l-49 -182h-170v-394z" />
<glyph unicode="&#xd1;" horiz-adv-x="1275" d="M143 0v1423h318l272 -569q104 -221 156 -403q-18 201 -23 391l-6 581h273v-1423h-299l-244 545q-158 352 -193 467q8 -104 15 -404l8 -608h-277zM252 1681q94 119 254 119q61 0 135 -34.5t133 -34.5q84 0 139 61l84 -156q-92 -119 -254 -118q-63 0 -135.5 34.5 t-132.5 34.5q-84 0 -139 -59z" />
<glyph unicode="&#xd2;" horiz-adv-x="1392" d="M82 707q0 231 84 406t237 259q129 70 295 70q285 0 449 -193.5t164 -529.5q0 -242 -82 -417t-236 -259q-119 -66 -284 -66q-162 0 -271.5 47.5t-191.5 153.5q-164 212 -164 529zM393 1673l119 213l424 -266l-84 -152zM401 707q0 -371 127 -461q68 -49 170 -49 q150 0 216.5 120.5t66.5 393.5q0 211 -37 329q-20 68 -83.5 124.5t-166.5 56.5q-72 0 -131 -34t-90 -91q-72 -135 -72 -389z" />
<glyph unicode="&#xd3;" horiz-adv-x="1392" d="M82 707q0 231 84 406t237 259q129 70 295 70q285 0 449 -193.5t164 -529.5q0 -242 -82 -417t-236 -259q-119 -66 -284 -66q-162 0 -271.5 47.5t-191.5 153.5q-164 212 -164 529zM401 707q0 -371 127 -461q68 -49 170 -49q150 0 216.5 120.5t66.5 393.5q0 211 -37 329 q-20 68 -83.5 124.5t-166.5 56.5q-72 0 -131 -34t-90 -91q-72 -135 -72 -389zM442 1620l424 266l119 -213l-459 -205z" />
<glyph unicode="&#xd4;" horiz-adv-x="1392" d="M82 707q0 231 84 406t237 259q129 70 295 70q285 0 449 -193.5t164 -529.5q0 -242 -82 -417t-236 -259q-119 -66 -284 -66q-162 0 -271.5 47.5t-191.5 153.5q-164 212 -164 529zM330 1608l368 276l377 -276l-92 -150l-285 156l-276 -156zM401 707q0 -371 127 -461 q68 -49 170 -49q150 0 216.5 120.5t66.5 393.5q0 211 -37 329q-20 68 -83.5 124.5t-166.5 56.5q-72 0 -131 -34t-90 -91q-72 -135 -72 -389z" />
<glyph unicode="&#xd5;" horiz-adv-x="1368" d="M70 707q0 231 84 406t237 259q129 70 295 70q285 0 448.5 -193.5t163.5 -529.5q0 -242 -81.5 -417t-235.5 -259q-119 -66 -285 -66q-162 0 -271.5 47.5t-191.5 153.5q-163 212 -163 529zM311 1681q94 119 254 119q61 0 135 -34.5t134 -34.5q84 0 139 61l84 -156 q-92 -119 -254 -118q-63 0 -136 34.5t-132 34.5q-84 0 -140 -59zM389 707q0 -371 127 -461q68 -49 170 -49q150 0 216.5 120.5t66.5 393.5q0 211 -37 329q-20 68 -84 124.5t-166 56.5q-72 0 -131 -34t-90 -91q-72 -135 -72 -389z" />
<glyph unicode="&#xd6;" horiz-adv-x="1392" d="M82 707q0 231 84 406t237 259q129 70 295 70q285 0 449 -193.5t164 -529.5q0 -242 -82 -417t-236 -259q-119 -66 -284 -66q-162 0 -271.5 47.5t-191.5 153.5q-164 212 -164 529zM324 1628.5q0 63.5 47 110.5t112 47q63 0 108.5 -46t45.5 -112q0 -63 -46 -110.5 t-112 -47.5q-63 0 -109 47.5t-46 111zM401 707q0 -371 127 -461q68 -49 170 -49q150 0 216.5 120.5t66.5 393.5q0 211 -37 329q-20 68 -83.5 124.5t-166.5 56.5q-72 0 -131 -34t-90 -91q-72 -135 -72 -389zM756 1628.5q0 65.5 47 111.5t112 46q63 0 108.5 -46t45.5 -112 q0 -63 -47 -110.5t-110.5 -47.5t-109.5 46.5t-46 112z" />
<glyph unicode="&#xd7;" horiz-adv-x="1261" d="M143 315l306 306l-306 305l183 182l305 -305l305 305l182 -182l-305 -305l305 -306l-182 -182l-305 305l-305 -305z" />
<glyph unicode="&#xd8;" horiz-adv-x="1392" d="M82 707q0 231 84 407t237 258q129 70 295 70q170 0 297 -72l125 203l150 -84l-140 -225q180 -193 181 -545q0 -242 -82 -417t-236 -259q-119 -66 -284 -66q-190 0 -318 70l-137 -227l-150 84l156 256q-178 217 -178 547zM401 707q0 -164 25 -275l440 725q-70 63 -172 64 q-72 0 -132 -34t-89 -91q-72 -135 -72 -389zM516 252q80 -55 182 -55q150 0 216.5 120.5t66.5 393.5q0 160 -23 268z" />
<glyph unicode="&#xd9;" horiz-adv-x="1302" d="M139 432v991h293v-936q0 -123 25 -170q51 -98 194 -98q94 0 150.5 44t66.5 122q4 31 4 127v911h291v-958q0 -156 -22 -223q-35 -104 -155 -186.5t-329 -82.5q-336 0 -456 191q-35 55 -48.5 110.5t-13.5 157.5zM344 1673l119 213l424 -266l-84 -152z" />
<glyph unicode="&#xda;" horiz-adv-x="1302" d="M139 432v991h293v-936q0 -123 25 -170q51 -98 194 -98q94 0 150.5 44t66.5 122q4 31 4 127v911h291v-958q0 -156 -22 -223q-35 -104 -155 -186.5t-329 -82.5q-336 0 -456 191q-35 55 -48.5 110.5t-13.5 157.5zM444 1620l424 266l119 -213l-459 -205z" />
<glyph unicode="&#xdb;" horiz-adv-x="1302" d="M139 432v991h293v-936q0 -123 25 -170q51 -98 194 -98q94 0 150.5 44t66.5 122q4 31 4 127v911h291v-958q0 -156 -22 -223q-35 -104 -155 -186.5t-329 -82.5q-336 0 -456 191q-35 55 -48.5 110.5t-13.5 157.5zM289 1608l368 276l377 -276l-92 -150l-285 156l-276 -156z " />
<glyph unicode="&#xdc;" horiz-adv-x="1302" d="M139 432v991h293v-936q0 -123 25 -170q51 -98 194 -98q94 0 150.5 44t66.5 122q4 31 4 127v911h291v-958q0 -156 -22 -223q-35 -104 -155 -186.5t-329 -82.5q-336 0 -456 191q-35 55 -48.5 110.5t-13.5 157.5zM279 1628.5q0 63.5 47 110.5t112 47q63 0 108.5 -46 t45.5 -112q0 -63 -46 -110.5t-112 -47.5q-63 0 -109 47.5t-46 111zM709 1628.5q0 65.5 47 111.5t112 46q63 0 108.5 -46t45.5 -112q0 -63 -46 -110.5t-112 -47.5q-63 0 -109 46.5t-46 112z" />
<glyph unicode="&#xdd;" horiz-adv-x="1093" d="M-51 1423h344l182 -389q45 -94 72 -182q39 96 76 178l184 393h338l-455 -837v-586h-299v586zM328 1620l424 266l118 -213l-458 -205z" />
<glyph unicode="&#xde;" horiz-adv-x="1159" d="M143 0v1423h287v-225h88q170 0 249 -16.5t146 -53.5q205 -113 205 -368q0 -141 -64.5 -250t-181.5 -164q-100 -47 -284 -47h-158v-299h-287zM430 532h150q88 0 124.5 14.5t65.5 59.5q35 55 35 148q0 100 -51.5 156.5t-141.5 56.5h-182v-435z" />
<glyph unicode="&#xdf;" horiz-adv-x="1232" d="M16 836v213h168v32q0 104 18.5 167t84.5 122q86 80 213 105q57 10 112 10q205 0 325 -91t120 -247q0 -166 -152 -256l-65 -39q-27 -16 -27 -37q0 -29 49 -51q164 -72 223 -137q86 -88 86 -232q0 -188 -129 -305t-337 -117q-102 0 -154 25l61 188q27 -10 62 -10 q94 0 145 54.5t51 154.5q0 78 -43 123q-37 41 -75 65l-93 60q-90 57 -90 166q0 90 68 143l47 37q66 51 66 131t-37 123q-37 41 -103 41q-53 0 -92 -34t-49 -87q-6 -31 -6 -143v-799q0 -123 -41 -211h-279q41 131 41 260v576h-168z" />
<glyph unicode="&#xe0;" horiz-adv-x="1048" d="M72 289q0 360 503 360q33 0 62 -2v43q0 90 -24.5 123t-98.5 33q-127 0 -303 -119l-117 197q74 45 170 86q145 61 287 61q131 0 219 -47t119 -135q20 -61 18 -189l-6 -352q-2 -90 15.5 -137t82.5 -96l-145 -168q-106 45 -147 127q-27 -29 -64 -56q-80 -57 -211 -57 q-174 0 -267 85t-93 243zM227 1346l119 213l424 -267l-84 -151zM365 299q0 -61 33.5 -99t86.5 -38q78 0 144 71l4 226h-12q-145 0 -200.5 -34t-55.5 -126z" />
<glyph unicode="&#xe1;" horiz-adv-x="1048" d="M72 289q0 360 503 360q39 0 62 -2v43q0 90 -24.5 123t-98.5 33q-127 0 -303 -119l-117 197q72 45 170 86q145 61 287 61q131 0 219 -47t119 -135q20 -61 18 -189l-6 -352q-2 -90 15.5 -137t82.5 -96l-145 -168q-106 45 -147 127q-37 -37 -64 -56q-80 -57 -211 -57 q-174 0 -267 85t-93 243zM291 1292l424 267l119 -213l-459 -205zM365 299q0 -61 33.5 -99t86.5 -38q78 0 144 71l4 226h-12q-145 0 -200.5 -34t-55.5 -126z" />
<glyph unicode="&#xe2;" horiz-adv-x="1048" d="M72 289q0 360 503 360q39 0 62 -2v43q0 90 -24.5 123t-98.5 33q-127 0 -303 -119l-117 197q72 45 170 86q145 61 287 61q131 0 219 -47t119 -135q20 -61 18 -189l-6 -352q-2 -90 15.5 -137t82.5 -96l-145 -168q-106 45 -147 127q-37 -37 -64 -56q-80 -57 -211 -57 q-174 0 -267 85t-93 243zM139 1280l369 276l377 -276l-92 -150l-285 156l-277 -156zM365 299q0 -61 33.5 -99t86.5 -38q78 0 144 71l4 226h-12q-145 0 -200.5 -34t-55.5 -126z" />
<glyph unicode="&#xe3;" horiz-adv-x="1048" d="M72 289q0 360 503 360q39 0 62 -2v43q0 90 -24.5 123t-98.5 33q-127 0 -303 -119l-117 197q72 45 170 86q145 61 287 61q131 0 219 -47t119 -135q20 -61 18 -189l-6 -352q-2 -90 15.5 -137t82.5 -96l-145 -168q-106 45 -147 127q-37 -37 -64 -56q-80 -57 -211 -57 q-174 0 -267 85t-93 243zM147 1354q94 119 254 119q61 0 135 -35t134 -35q84 0 139 61l84 -155q-92 -119 -254 -119q-63 0 -136 35t-132 35q-84 0 -140 -60zM365 299q0 -61 33.5 -99t86.5 -38q78 0 144 71l4 226h-12q-145 0 -200.5 -34t-55.5 -126z" />
<glyph unicode="&#xe4;" horiz-adv-x="1048" d="M72 289q0 360 503 360q33 0 62 -2v43q0 90 -24.5 123t-98.5 33q-127 0 -303 -119l-117 197q70 43 170 86q154 61 287 61q131 0 219 -47t119 -135q20 -61 18 -189l-6 -352q-2 -90 15.5 -137t82.5 -96l-145 -168q-106 45 -147 127q-43 -41 -64 -56q-80 -57 -211 -57 q-174 0 -267 85t-93 243zM131 1300.5q0 67.5 49 115.5t117 48q66 0 113 -48t47 -115.5t-48.5 -115.5t-115.5 -48q-66 0 -114 48t-48 115.5zM365 299q0 -61 33.5 -99t86.5 -38q78 0 144 71l4 226h-12q-145 0 -200.5 -34t-55.5 -126zM563 1300.5q0 67.5 48 115.5t118 48 q66 0 113 -48t47 -115.5t-48 -115.5t-116 -48t-115 48t-47 115.5z" />
<glyph unicode="&#xe5;" horiz-adv-x="1048" d="M72 289q0 360 503 360q39 0 62 -2v43q0 90 -24.5 123t-98.5 33q-127 0 -303 -119l-117 197q72 45 170 86q145 61 287 61q131 0 219 -47t119 -135q20 -61 18 -189l-6 -352q-2 -90 15.5 -137t82.5 -96l-145 -168q-106 45 -147 127q-37 -37 -64 -56q-80 -57 -211 -57 q-174 0 -267 85t-93 243zM309 1350q0 88 64.5 152.5t152.5 64.5t150.5 -63.5t62.5 -153.5q0 -88 -64.5 -152.5t-152.5 -64.5t-150.5 63.5t-62.5 153.5zM365 299q0 -61 33.5 -99t86.5 -38q78 0 144 71l4 226h-12q-145 0 -200.5 -34t-55.5 -126zM420 1350q0 -43 30.5 -74 t71.5 -31q43 0 74 31t31 74t-30 73.5t-71 30.5q-45 0 -75.5 -30.5t-30.5 -73.5z" />
<glyph unicode="&#xe6;" horiz-adv-x="1560" d="M72 289q0 360 503 360q10 0 29 -1t33 -1v43q0 90 -24.5 123t-98.5 33q-127 0 -303 -119l-117 197q63 43 170 86q145 61 287 61q145 0 266 -96q102 94 250 94q197 0 303 -111q139 -141 139 -458v-64h-606v-8q0 -121 57.5 -187.5t163.5 -66.5q141 0 267 105l106 -164 q-178 -145 -395 -146q-106 0 -172 21.5t-142 81.5l-36 37q-39 -55 -109 -93q-100 -55 -211 -55q-174 0 -267 85t-93 243zM365 299q0 -61 33.5 -99t86.5 -38q78 0 146 74l2 223h-12q-145 0 -200.5 -34t-55.5 -126zM907 637h318v12q0 106 -33 158q-41 61 -121 61 q-78 0 -121 -59t-43 -168v-4z" />
<glyph unicode="&#xe7;" horiz-adv-x="931" d="M82 516q0 338 215 485q115 78 260 78q104 0 203 -47q43 -23 102 -74l-133 -180q-88 82 -166 82q-92 0 -135 -84t-43 -268q0 -199 53 -264q47 -59 123 -60q90 0 189 86l16 15l125 -166q-49 -49 -96 -78q-111 -66 -240 -66l-14 -41q74 -8 110.5 -52t36.5 -109 q0 -78 -59.5 -129.5t-163.5 -51.5q-88 0 -178 50l61 129q70 -31 107 -31q20 0 35.5 12t15.5 25q0 41 -51 41q-12 0 -29.5 -6.5t-26.5 -6.5l-26 41l39 144q-158 39 -244 175t-86 351z" />
<glyph unicode="&#xe8;" horiz-adv-x="1036" d="M82 514q0 270 131 416q127 141 330 141q197 0 303 -110q139 -141 139 -459v-64h-606v-8q0 -121 57.5 -187.5t163.5 -66.5q141 0 266 105l107 -164q-178 -145 -395 -146q-225 0 -360.5 147.5t-135.5 395.5zM195 1346l118 213l424 -267l-84 -151zM383 639h317v12 q0 106 -32 158q-41 61 -121 61q-78 0 -121 -59t-43 -168v-4z" />
<glyph unicode="&#xe9;" horiz-adv-x="1036" d="M82 514q0 270 131 416q127 141 330 141q197 0 303 -110q139 -141 139 -459v-64h-606v-8q0 -121 57.5 -187.5t163.5 -66.5q141 0 266 105l107 -164q-178 -145 -395 -146q-225 0 -360.5 147.5t-135.5 395.5zM299 1292l424 267l119 -213l-459 -205zM383 639h317v12 q0 106 -32 158q-41 61 -121 61q-78 0 -121 -59t-43 -168v-4z" />
<glyph unicode="&#xea;" horiz-adv-x="1036" d="M82 514q0 270 131 416q127 141 330 141q197 0 303 -110q139 -141 139 -459v-64h-606v-8q0 -121 57.5 -187.5t163.5 -66.5q141 0 266 105l107 -164q-178 -145 -395 -146q-225 0 -360.5 147.5t-135.5 395.5zM172 1280l369 276l377 -276l-93 -150l-284 156l-277 -156z M383 639h317v12q0 106 -32 158q-41 61 -121 61q-78 0 -121 -59t-43 -168v-4z" />
<glyph unicode="&#xeb;" horiz-adv-x="1036" d="M82 514q0 270 131 416q127 141 330 141q197 0 303 -110q139 -141 139 -459v-64h-606v-8q0 -121 57.5 -187.5t163.5 -66.5q141 0 266 105l107 -164q-178 -145 -395 -146q-225 0 -360.5 147.5t-135.5 395.5zM172 1300.5q0 63.5 47 110.5t113 47q63 0 108 -46t45 -112 q0 -63 -46 -110t-111 -47q-63 0 -109.5 47t-46.5 110.5zM383 639h317v12q0 106 -32 158q-41 61 -121 61q-78 0 -121 -59t-43 -168v-4zM604 1300.5q0 65.5 47 111.5t113 46q63 0 108.5 -46t45.5 -112q0 -63 -47.5 -110t-111 -47t-109.5 46t-46 111.5z" />
<glyph unicode="&#xec;" horiz-adv-x="561" d="M-41 1346l119 213l424 -267l-84 -151zM143 0v1030l275 43v-1073h-275z" />
<glyph unicode="&#xed;" horiz-adv-x="561" d="M68 1292l424 267l118 -213l-458 -205zM143 0v1030l275 43v-1073h-275z" />
<glyph unicode="&#xee;" horiz-adv-x="561" d="M-92 1280l368 276l377 -276l-92 -150l-285 156l-276 -156zM143 0v1030l275 43v-1073h-275z" />
<glyph unicode="&#xef;" horiz-adv-x="561" d="M-92 1300.5q0 63.5 47 110.5t113 47q63 0 108 -46t45 -112q0 -63 -47 -110t-110.5 -47t-109.5 47t-46 110.5zM143 0v1030l275 43v-1073h-275zM340 1300.5q0 65.5 47 111.5t113 46q63 0 108 -46t45 -112q0 -63 -46 -110t-111 -47q-63 0 -109.5 46t-46.5 111.5z" />
<glyph unicode="&#xf0;" horiz-adv-x="1077" d="M-8 1217l164 194q150 -16 290 -84l64 74l166 -74l-76 -88q96 -66 162 -143q233 -274 233 -602q0 -248 -128 -383.5t-332 -135.5q-199 0 -326 125t-127 338q0 195 122 311.5t312 116.5q14 0 107 -6q-57 80 -136 148q-16 14 -53 43l-84 -97l-166 74l99 111q-131 60 -291 78 zM358 434q0 -106 50.5 -170.5t138.5 -64.5t132 75.5t44 202.5q0 29 -12 133q-61 39 -183 39q-80 0 -125 -55.5t-45 -159.5z" />
<glyph unicode="&#xf1;" horiz-adv-x="1114" d="M106 1006l244 69q39 -68 39 -131q78 53 121 78q86 45 188 45q88 0 158 -42t94 -110q20 -55 21 -149v-766h-271v682q0 90 -19 122t-73 32q-86 0 -190 -95v-741h-275v760q0 142 -37 246zM180 1354q94 119 254 119q61 0 135 -35t133 -35q84 0 140 61l84 -155 q-92 -119 -254 -119q-63 0 -136 35t-133 35q-84 0 -139 -60z" />
<glyph unicode="&#xf2;" d="M72 520q0 248 129 398.5t342 150.5q223 0 356 -158q121 -141 121 -383q0 -256 -131 -405q-129 -145 -346 -146q-213 0 -342 147.5t-129 395.5zM190 1346l119 213l424 -267l-84 -151zM377 526q0 -182 35 -264q18 -41 57 -63.5t82 -22.5q90 0 130 84t40 270q0 211 -55 281 q-43 55 -119 55q-104 0 -141 -106q-29 -87 -29 -234z" />
<glyph unicode="&#xf3;" d="M72 520q0 248 129 398.5t342 150.5q223 0 356 -158q121 -141 121 -383q0 -256 -131 -405q-129 -145 -346 -146q-213 0 -342 147.5t-129 395.5zM301 1292l424 267l119 -213l-459 -205zM377 526q0 -182 35 -264q18 -41 57 -63.5t82 -22.5q90 0 130 84t40 270q0 211 -55 281 q-43 55 -119 55q-104 0 -141 -106q-29 -87 -29 -234z" />
<glyph unicode="&#xf4;" d="M72 520q0 248 129 398.5t342 150.5q223 0 356 -158q121 -141 121 -383q0 -256 -131 -405q-129 -145 -346 -146q-213 0 -342 147.5t-129 395.5zM174 1280l369 276l377 -276l-93 -150l-284 156l-277 -156zM377 526q0 -182 35 -264q18 -41 57 -63.5t82 -22.5q90 0 130 84 t40 270q0 211 -55 281q-43 55 -119 55q-104 0 -141 -106q-29 -87 -29 -234z" />
<glyph unicode="&#xf5;" d="M72 520q0 248 129 398.5t342 150.5q223 0 356 -158q121 -141 121 -383q0 -256 -131 -405q-129 -145 -346 -146q-213 0 -342 147.5t-129 395.5zM170 1354q94 119 254 119q61 0 135 -35t133 -35q84 0 139 61l84 -155q-92 -119 -253 -119q-63 0 -136 35t-133 35 q-84 0 -139 -60zM377 526q0 -182 35 -264q18 -41 57 -63.5t82 -22.5q90 0 130 84t40 270q0 211 -55 281q-43 55 -119 55q-104 0 -141 -106q-29 -87 -29 -234z" />
<glyph unicode="&#xf6;" d="M72 520q0 248 129 398.5t342 150.5q223 0 356 -158q121 -141 121 -383q0 -256 -131 -405q-129 -145 -346 -146q-213 0 -342 147.5t-129 395.5zM172 1300.5q0 63.5 47 110.5t113 47q63 0 108 -46t45 -112q0 -63 -46 -110t-111 -47q-63 0 -109.5 47t-46.5 110.5zM377 526 q0 -182 35 -264q18 -41 57 -63.5t82 -22.5q90 0 130 84t40 270q0 211 -55 281q-43 55 -119 55q-104 0 -141 -106q-29 -87 -29 -234zM604 1300.5q0 65.5 47 111.5t113 46q63 0 108.5 -46t45.5 -112q0 -63 -47.5 -110t-111 -47t-109.5 46t-46 111.5z" />
<glyph unicode="&#xf7;" horiz-adv-x="1198" d="M82 438v215h1034v-215h-1034zM418 139q0 76 52 130.5t126 52t125 -54.5t51 -128q0 -72 -52 -122t-126 -50q-72 0 -124 50t-52 122zM422 954q0 74 51 127.5t123 53.5q74 0 126 -52.5t52 -126t-52 -125t-126 -51.5q-72 0 -123 51t-51 123z" />
<glyph unicode="&#xf8;" d="M72 520q0 248 129 398.5t342 150.5q125 0 223 -49l121 197l127 -72l-133 -215q139 -137 139 -402q0 -256 -131 -405q-129 -145 -346 -146q-117 0 -211 48l-119 -197l-127 72l127 211q-141 151 -141 409zM377 526q0 -20 6 -137l266 438q-43 39 -102 39q-104 0 -141 -106 q-29 -87 -29 -234zM446 213q45 -37 105 -37q90 0 130 84t40 270q0 86 -6 123z" />
<glyph unicode="&#xf9;" horiz-adv-x="1097" d="M133 352v672l270 51v-674q0 -127 23 -172q25 -49 96 -49q51 0 102.5 31t67.5 70v737l262 55v-801q0 -115 64 -190l-195 -111q-55 39 -82 103q-104 -100 -276 -101q-111 0 -197 47.5t-112 122.5q-23 66 -23 209zM256 1346l119 213l424 -267l-84 -151z" />
<glyph unicode="&#xfa;" horiz-adv-x="1097" d="M133 352v672l270 51v-674q0 -127 23 -172q25 -49 96 -49q51 0 102.5 31t67.5 70v737l262 55v-801q0 -115 64 -190l-195 -111q-55 39 -82 103q-104 -100 -276 -101q-111 0 -197 47.5t-112 122.5q-23 66 -23 209zM328 1292l424 267l118 -213l-458 -205z" />
<glyph unicode="&#xfb;" horiz-adv-x="1097" d="M133 352v672l270 51v-674q0 -127 23 -172q25 -49 96 -49q51 0 102.5 31t67.5 70v737l262 55v-801q0 -115 64 -190l-195 -111q-55 39 -82 103q-104 -100 -276 -101q-111 0 -197 47.5t-112 122.5q-23 66 -23 209zM178 1280l369 276l377 -276l-93 -150l-284 156l-277 -156z " />
<glyph unicode="&#xfc;" horiz-adv-x="1097" d="M133 352v672l270 51v-674q0 -127 23 -172q25 -49 96 -49q51 0 102.5 31t67.5 70v737l262 55v-801q0 -115 64 -190l-195 -111q-55 39 -82 103q-104 -100 -276 -101q-111 0 -197 47.5t-112 122.5q-23 66 -23 209zM166 1300.5q0 63.5 47 110.5t113 47q63 0 108 -46t45 -112 q0 -63 -47 -110t-110.5 -47t-109.5 47t-46 110.5zM608 1300.5q0 65.5 47 111.5t113 46q63 0 108.5 -46t45.5 -112q0 -63 -47.5 -110t-111 -47t-109.5 46t-46 111.5z" />
<glyph unicode="&#xfd;" horiz-adv-x="1017" d="M-10 1032l280 33l183 -612l55 -217q20 117 33 167q18 76 41 146l157 500h289l-381 -1065q-53 -150 -98 -226.5t-103 -119.5q-104 -76 -253 -97l-95 180q117 33 170 70q43 31 78 86q29 47 60 123h-70l-98 295zM309 1292l424 267l119 -213l-459 -205z" />
<glyph unicode="&#xfe;" horiz-adv-x="1122" d="M117 1452l280 66q10 -90 11 -187v-248q0 -68 -7 -92q78 84 224 84q193 0 304 -143.5t111 -388.5q0 -328 -194 -482q-102 -82 -230 -81q-137 0 -217 79v-440l-264 -70v1645q0 182 -18 258zM412 281q76 -68 153 -68q100 0 133 82q31 72 31 242q0 125 -12 178 q-31 133 -150 133q-80 0 -155 -84v-483z" />
<glyph unicode="&#xff;" horiz-adv-x="1017" d="M-10 1032l280 33l183 -612q6 -27 19 -78t23.5 -92t12.5 -47q0 31 33 167q18 76 41 146l157 500h289l-381 -1065q-53 -150 -98 -226.5t-103 -119.5q-104 -76 -253 -97l-95 180q117 33 170 70q43 31 78 86q29 47 60 123h-70l-98 295zM162 1300.5q0 63.5 47 110.5t113 47 q63 0 108 -46t45 -112q0 -63 -47 -110t-110.5 -47t-109.5 47t-46 110.5zM594 1300.5q0 65.5 47 111.5t113 46q63 0 108 -46t45 -112q0 -63 -46 -110t-111 -47q-63 0 -109.5 46t-46.5 111.5z" />
<glyph unicode="&#x152;" horiz-adv-x="1712" d="M82 715q0 293 143 485q117 160 346 205q96 18 260 18h814l-37 -233h-486v-330h406v-233h-406v-381h549v-246h-835q-242 0 -351.5 25.5t-208.5 121.5q-194 189 -194 568zM424 741q0 -283 72 -399q72 -119 225 -119q31 0 63.5 5t51.5 10l16 6v915q-78 20 -154 21 q-141 0 -207.5 -107t-66.5 -332z" />
<glyph unicode="&#x153;" horiz-adv-x="1642" d="M72 520q0 248 129 398.5t342 150.5q186 0 307 -108q117 109 299 108q197 0 303 -111q139 -141 139 -458v-64h-606v-8q0 -121 57.5 -187.5t163.5 -66.5q141 0 267 105l106 -164q-178 -145 -395 -146q-201 0 -330 117q-121 -109 -311 -109q-213 0 -342 147.5t-129 395.5z M377 526q0 -182 35 -264q18 -41 57 -63.5t82 -22.5q90 0 130 84t40 270q0 211 -55 281q-43 55 -119 55q-104 0 -141 -106q-29 -87 -29 -234zM989 637h318q0 119 -33 170q-41 61 -121 61q-78 0 -121 -59t-43 -172z" />
<glyph unicode="&#x178;" horiz-adv-x="1093" d="M-51 1423h344l182 -389q45 -94 72 -182q39 96 76 178l184 393h338l-455 -837v-586h-299v586zM168 1628.5q0 63.5 47 110.5t113 47q63 0 108 -46t45 -112q0 -63 -46 -110.5t-111 -47.5q-63 0 -109.5 47.5t-46.5 111zM600 1628.5q0 65.5 47 111.5t113 46q63 0 108 -46 t45 -112q0 -63 -47 -110.5t-110.5 -47.5t-109.5 46.5t-46 112z" />
<glyph unicode="&#x2c6;" horiz-adv-x="827" d="M41 1280l369 276l376 -276l-92 -150l-284 156l-277 -156z" />
<glyph unicode="&#x2dc;" horiz-adv-x="827" d="M41 1354q94 119 254 119q61 0 135 -35t133 -35q84 0 139 61l84 -155q-92 -119 -254 -119q-63 0 -135.5 35t-132.5 35q-84 0 -139 -60z" />
<glyph unicode="&#x3bc;" horiz-adv-x="1107" d="M143 -451v1475l271 51v-674q0 -127 22 -172q25 -49 96 -49q51 0 102.5 31t67.5 70v737l263 55v-801q0 -115 63 -190l-194 -111q-55 39 -82 103q-104 -100 -277 -101q-39 0 -72 29q4 -41 5 -63v-320z" />
<glyph unicode="&#x2000;" horiz-adv-x="946" />
<glyph unicode="&#x2001;" horiz-adv-x="1894" />
<glyph unicode="&#x2002;" horiz-adv-x="946" />
<glyph unicode="&#x2003;" horiz-adv-x="1894" />
<glyph unicode="&#x2004;" horiz-adv-x="630" />
<glyph unicode="&#x2005;" horiz-adv-x="473" />
<glyph unicode="&#x2006;" horiz-adv-x="315" />
<glyph unicode="&#x2007;" horiz-adv-x="315" />
<glyph unicode="&#x2008;" horiz-adv-x="235" />
<glyph unicode="&#x2009;" horiz-adv-x="378" />
<glyph unicode="&#x200a;" horiz-adv-x="104" />
<glyph unicode="&#x2010;" horiz-adv-x="655" d="M82 442v238h491v-238h-491z" />
<glyph unicode="&#x2011;" horiz-adv-x="655" d="M82 442v238h491v-238h-491z" />
<glyph unicode="&#x2012;" horiz-adv-x="655" d="M82 442v238h491v-238h-491z" />
<glyph unicode="&#x2013;" horiz-adv-x="1161" d="M82 457v211h997v-211h-997z" />
<glyph unicode="&#x2014;" horiz-adv-x="1624" d="M82 457v211h1460v-211h-1460z" />
<glyph unicode="&#x2018;" horiz-adv-x="530" d="M72 1098q0 133 79.5 235.5t208.5 134.5l109 -114q-68 -16 -107.5 -47t-39.5 -70q0 -37 53 -66q80 -45 80 -143q0 -74 -52.5 -125t-126.5 -51q-88 0 -146 70t-58 176z" />
<glyph unicode="&#x2019;" horiz-adv-x="530" d="M61 954q68 16 108 48t40 69q0 33 -53 66q-80 47 -80 143q0 74 51 125t127 51q90 0 147.5 -69.5t57.5 -176.5q0 -133 -80 -234.5t-209 -133.5z" />
<glyph unicode="&#x201a;" horiz-adv-x="530" d="M61 -182q68 14 108 47t40 69q0 33 -53 66q-80 47 -80 143q0 74 52 125t126 51q90 0 147.5 -69.5t57.5 -175.5q0 -133 -80 -235.5t-209 -135.5z" />
<glyph unicode="&#x201c;" horiz-adv-x="991" d="M72 1100q0 133 79.5 235.5t208.5 134.5l109 -114q-68 -16 -107.5 -47t-39.5 -70q0 -33 53 -65q80 -47 80 -144q0 -74 -52.5 -125t-128.5 -51q-88 0 -145 70t-57 176zM535 1100q0 133 79.5 235.5t206.5 134.5l109 -114q-66 -16 -106 -47t-40 -70q0 -33 54 -65 q80 -49 80 -144q0 -74 -52.5 -125t-128.5 -51q-88 0 -145 68.5t-57 177.5z" />
<glyph unicode="&#x201d;" horiz-adv-x="991" d="M61 954q68 16 108 48t40 69q0 33 -53 66q-80 47 -80 143q0 74 51 125t127 51q90 0 147.5 -69.5t57.5 -176.5q0 -133 -80 -234.5t-209 -133.5zM524 954q66 16 106 48t40 69q0 35 -52 66q-80 47 -79 143q0 74 51 125t127 51q88 0 145.5 -68.5t57.5 -177.5 q0 -133 -79 -234.5t-208 -133.5z" />
<glyph unicode="&#x201e;" horiz-adv-x="993" d="M61 -182q68 14 108 47t40 69q0 33 -53 66q-80 47 -80 143q0 74 52 125t126 51q90 0 147.5 -69.5t57.5 -175.5q0 -133 -80 -235.5t-209 -135.5zM524 -182q66 14 106 47t40 69q0 35 -52 66q-80 47 -79 143q0 74 51 125t127 51q90 0 147.5 -69.5t57.5 -175.5 q0 -133 -80 -235.5t-209 -135.5z" />
<glyph unicode="&#x2022;" horiz-adv-x="970" d="M123 725q0 152 106.5 257t256 105t256 -105t106.5 -257t-106.5 -257.5t-256 -105.5t-256 105.5t-106.5 257.5z" />
<glyph unicode="&#x2026;" horiz-adv-x="1589" d="M102 150q0 74 52.5 126t126.5 52q76 0 129 -52.5t53 -125.5q0 -76 -53.5 -129.5t-126.5 -53.5q-76 0 -128.5 53.5t-52.5 129.5zM614 150q0 74 52.5 126t126.5 52q76 0 129 -52.5t53 -125.5q0 -76 -53.5 -129.5t-126.5 -53.5q-76 0 -128.5 53.5t-52.5 129.5zM1126 150 q0 74 52.5 126t126.5 52q76 0 129 -52.5t53 -125.5q0 -76 -53.5 -129.5t-126.5 -53.5q-76 0 -128.5 53.5t-52.5 129.5z" />
<glyph unicode="&#x202f;" horiz-adv-x="378" />
<glyph unicode="&#x2039;" horiz-adv-x="614" d="M51 510l326 479l186 -125l-237 -354l237 -354l-186 -125z" />
<glyph unicode="&#x203a;" horiz-adv-x="614" d="M51 156l238 354l-238 354l187 125l325 -479l-325 -479z" />
<glyph unicode="&#x205f;" horiz-adv-x="473" />
<glyph unicode="&#x20ac;" horiz-adv-x="1277" d="M61 442v201h205v39q0 82 4 119h-209v200h250q23 70 51 123q82 156 227.5 243t317.5 87q176 0 299 -72l-67 -235q-106 80 -228 80q-72 0 -137 -33t-104 -90q-27 -37 -47 -103h395v-200h-426q0 -10 -1 -30.5t-1 -33.5q0 -66 2 -94h426v-201h-402q12 -53 33 -86 q88 -160 275 -159q129 0 243 92l70 -221q-80 -51 -149.5 -72t-184.5 -21q-293 0 -465 197q-100 113 -143 270h-234z" />
<glyph unicode="&#x2122;" horiz-adv-x="2088" d="M82 1253v197h709v-197h-244v-647h-221v647h-244zM971 606v844h297l200 -549l201 549h297v-844h-221v549h-4l-201 -549h-143l-201 549h-4v-549h-221z" />
<glyph unicode="&#xe000;" horiz-adv-x="1080" d="M0 1080h1080v-1080h-1080v1080z" />
<glyph unicode="&#xfb01;" horiz-adv-x="1179" d="M49 856v193h101q0 23 -5.5 70.5t-5.5 72.5q0 156 88 241t250 85q141 0 228 -50l-89 -170q-39 18 -92 18.5t-83.5 -31.5t-30.5 -87v-149h626v-1049h-274v856h-350v-856h-269v856h-94zM731 1337.5q0 69.5 50 119.5t122 50q70 0 118 -49t48 -120.5t-49 -121t-121 -49.5 q-70 0 -119 50.5t-49 120z" />
<glyph unicode="&#xfb02;" horiz-adv-x="1187" d="M49 856v193h94q0 23 -5 70.5t-5 72.5q0 156 88 241t250 85q141 0 227 -50l-88 -170q-41 18 -92 19q-53 0 -84 -32t-31 -87v-149h252l-69 -193h-174v-856h-269v856h-94zM741 1452l281 64q14 -80 14 -273v-817q0 -201 19 -233q16 -29 55 -29q20 0 31 4l47 -164 q-74 -29 -164 -29q-88 0 -153.5 39t-90.5 105q-25 63 -24 235v783q-1 184 -15 315z" />
<glyph unicode="&#xfb03;" horiz-adv-x="1806" d="M1358 1337.5q0 69.5 50 119.5t122 50q70 0 118 -49t48 -120.5t-49.5 -121t-120.5 -49.5q-70 0 -119 50.5t-49 120zM1388 0v1030l275 43v-1073h-275zM672 860v189h101q-10 72 -11 143q0 156 88 241t250 85q131 0 248 -66l-88 -170q-72 35 -113 35q-53 0 -83.5 -32 t-30.5 -87v-149h266l-70 -189h-194v-860h-269v860h-94zM49 860v189h101q-10 72 -11 143q0 156 88 241t250 85q131 0 248 -66l-88 -170q-72 35 -113 35q-53 0 -83.5 -32t-30.5 -87v-149h266l-70 -189h-194v-860h-269v860h-94z" />
<glyph unicode="&#xfb04;" horiz-adv-x="1820" d="M1374 1452l281 64q14 -80 14 -273v-817q0 -201 18 -233q16 -29 56 -29q16 0 30 4l47 -164q-74 -29 -163 -29q-88 0 -153.5 39t-90.5 105q-25 63 -25 235v783q0 184 -14 315zM672 860v189h101q-10 72 -11 143q0 156 88 241t250 85q131 0 248 -66l-88 -170q-72 35 -113 35 q-53 0 -83.5 -32t-30.5 -87v-149h266l-70 -189h-194v-860h-269v860h-94zM49 860v189h101q-10 72 -11 143q0 156 88 241t250 85q131 0 248 -66l-88 -170q-72 35 -113 35q-53 0 -83.5 -32t-30.5 -87v-149h266l-70 -189h-194v-860h-269v860h-94z" />
</font>
</defs>
</svg>
